<?xml version="1.0" encoding="utf-8"?>
<!-- Generator: Adobe Illustrator 23.0.1, SVG Export Plug-In . SVG Version: 6.00 Build 0)  -->
<svg version="1.1" id="Calque_1" xmlns="http://www.w3.org/2000/svg" xmlns:xlink="http://www.w3.org/1999/xlink" x="0px" y="0px"
	 viewBox="0 0 125.9 131.8" style="enable-background:new 0 0 125.9 131.8;" xml:space="preserve">
<style type="text/css">
	.st0{fill:#7A421C;}
	.st1{fill:#F6862A;}
	.st2{fill:#F9C620;}
</style>
<polygon class="st0" points="38.7,85.6 38.7,105.8 32.6,110.5 32.6,90.3 "/>
<path class="st1" d="M85.4,61.8L54.7,38.2l-16-12.3v20.2l16,12.3l9.8,7.5l-9.8,7.5l-16,12.3v20.2l16-12.3L85.4,70
	C87.8,68.1,87.8,63.6,85.4,61.8z M3.8,0C1.8,0,0,2,0,4.8V127c0,2.8,1.8,4.8,3.8,4.8c0.7,0,1.3-0.2,2-0.7l26.8-20.5V90.4L16.1,103
	V28.7l16.5,12.6V21.2L5.8,0.7C5.2,0.2,4.5,0,3.8,0z"/>
<polygon class="st0" points="38.7,25.9 38.7,46.1 32.6,41.4 32.6,21.2 "/>
<path class="st2" d="M124.1,61.8L44.5,0.7C43.9,0.2,43.2,0,42.6,0c-2,0-3.8,2-3.8,4.8v41.3v39.5V127c0,2.8,1.8,4.8,3.8,4.8
	c0.7,0,1.3-0.2,2-0.7L124.2,70C126.5,68.1,126.5,63.6,124.1,61.8z M54.7,103V73.4v-15V28.8l48.4,37.1L54.7,103z"/>
</svg>
