<?xml version="1.0" encoding="utf-8"?>
<!-- Generator: Adobe Illustrator 23.0.1, SVG Export Plug-In . SVG Version: 6.00 Build 0)  -->
<svg version="1.1" id="Calque_1" xmlns="http://www.w3.org/2000/svg" xmlns:xlink="http://www.w3.org/1999/xlink" x="0px" y="0px"
	 viewBox="0 0 184.1 131.8" style="enable-background:new 0 0 184.1 131.8;" xml:space="preserve">
<style type="text/css">
	.st0{enable-background:new    ;}
	.st1{fill:#FFFFFF;}
</style>
<g class="st0">
	<path class="st1" d="M70.5,113H55.1v-8.7c-2.7,3.9-5.9,6.8-9.6,8.6c-3.7,1.9-7.9,2.8-12.6,2.8c-9.5,0-17-3.2-22.4-9.7
		C5,99.5,2.3,90.6,2.3,79.3c0-10.7,2.8-19.4,8.4-26s12.9-9.9,21.8-9.9c5.5,0,10.2,1.1,14.1,3.4c3.9,2.3,6.7,5.6,8.5,9.9v-11h15.4
		V113z M55.5,79.2c0-6.9-1.6-12.4-4.9-16.2c-3.2-3.9-7.8-5.8-13.6-5.8s-10.4,2-13.7,6s-5,9.5-5,16.6s1.6,12.6,4.8,16.5
		s7.7,5.8,13.6,5.8c5.5,0,10-2.1,13.5-6.3S55.5,86,55.5,79.2z"/>
</g>
<g class="st0">
	<path class="st1" d="M101.3,56.5c1.7-4.4,3.8-7.7,6.6-9.9c2.7-2.1,6.1-3.2,10.1-3.2c2.2,0,4.3,0.3,6.4,0.8s4.2,1.3,6.2,2.3l-5.5,13
		c-1.3-0.9-2.8-1.6-4.3-2.1c-1.5-0.4-3.3-0.7-5.1-0.7c-5.1,0-8.8,2-11,6.1s-3.3,11-3.3,20.6v29.5H85.9V45.6h15.4L101.3,56.5
		L101.3,56.5z"/>
	<path class="st1" d="M154.8,56.5c1.7-4.4,3.8-7.7,6.6-9.9c2.7-2.1,6.1-3.2,10.1-3.2c2.2,0,4.3,0.3,6.4,0.8c2.1,0.5,4.2,1.3,6.2,2.3
		l-5.5,13c-1.3-0.9-2.8-1.6-4.3-2.1c-1.5-0.4-3.3-0.7-5.1-0.7c-5.1,0-8.8,2-11,6.1s-3.3,11-3.3,20.6v29.5h-15.4V45.6h15.4v10.9
		H154.8z"/>
</g>
</svg>
