<?xml version="1.0" encoding="utf-8"?>
<!-- Generator: Adobe Illustrator 23.0.1, SVG Export Plug-In . SVG Version: 6.00 Build 0)  -->
<svg version="1.1" id="Calque_1" xmlns="http://www.w3.org/2000/svg" xmlns:xlink="http://www.w3.org/1999/xlink" x="0px" y="0px"
	 viewBox="0 0 218.6 131.8" style="enable-background:new 0 0 218.6 131.8;" xml:space="preserve">
<style type="text/css">
	.st0{enable-background:new    ;}
	.st1{fill:#FFFFFF;}
</style>
<g class="st0">
	<path class="st1" d="M55.3,63.6c-2.4-2.6-5.1-4.6-8.3-6c-3.1-1.4-6.5-2.1-10.2-2.1c-6.3,0-11.3,2-15.1,6.1S16,71.1,16,77.8
		c0,7,1.9,12.5,5.7,16.5s9.1,6,15.8,6c3.7,0,7.1-0.7,10-2.1s5.5-3.5,7.7-6.3v17.7c-2.8,1.6-5.9,2.8-9.1,3.6s-6.7,1.2-10.3,1.2
		c-10.5,0-19.1-3.4-25.8-10.1C3.4,97.6,0,88.9,0,78.2C0,67.4,3.4,58.6,10.3,52s15.9-10,27-10c3.5,0,6.7,0.3,9.6,1s5.7,1.7,8.2,3.2
		v17.4H55.3z"/>
	<path class="st1" d="M66.1,111.7V1.8h14.5v53.7c3.1-4.6,6.7-8,10.8-10.1c4.2-2.1,9.2-3.2,15.2-3.2c5,0,9.3,0.8,12.8,2.4
		c3.5,1.6,6.3,3.9,8.3,7.1c1.2,1.8,2,4,2.6,6.5c0.5,2.5,0.8,6.8,0.8,12.9v40.8h-15.5V77.4c0-8.8-1.1-14.7-3.2-17.6
		c-2.2-2.9-6-4.4-11.4-4.4c-3.6,0-6.8,0.7-9.6,2c-2.8,1.3-5,3.2-6.6,5.6c-1.1,1.6-1.9,3.7-2.4,6.2c-0.4,2.5-0.7,6.6-0.7,12.1v30.6
		H66.1V111.7z"/>
	<path class="st1" d="M211.2,80.3h-53.7c0.4,6.3,2.2,11.2,5.6,14.7c3.4,3.5,7.8,5.3,13.4,5.3c5,0,9.1-1,12.4-3.1
		c3.3-2.1,6.2-5.4,8.6-10.1l13,7.2c-3.8,6.8-8.5,11.8-14,15.1c-5.6,3.3-12.1,5-19.6,5c-10.8,0-19.4-3.3-25.7-9.9
		c-6.4-6.6-9.6-15.3-9.6-26.3c0-10.5,3.3-19.2,9.9-26c6.6-6.8,15.1-10.2,25.4-10.2c10.8,0,19.3,3.1,25.3,9.3s9.1,14.9,9.1,26
		L211.2,80.3C211.3,80.3,211.2,80.3,211.2,80.3z M195.3,70c-0.6-4.8-2.5-8.5-5.5-11c-3.1-2.5-7.3-3.8-12.6-3.8
		c-5.1,0-9.1,1.2-12.2,3.7c-3.1,2.5-5.2,6.2-6.5,11.1H195.3z"/>
</g>
</svg>
