<?xml version="1.0" encoding="utf-8"?>
<!-- Generator: Adobe Illustrator 23.0.1, SVG Export Plug-In . SVG Version: 6.00 Build 0)  -->
<svg version="1.1" id="Calque_1" xmlns="http://www.w3.org/2000/svg" xmlns:xlink="http://www.w3.org/1999/xlink" x="0px" y="0px"
	 viewBox="0 0 528.6 131.8" style="enable-background:new 0 0 528.6 131.8;" xml:space="preserve">
<style type="text/css">
	.st0{enable-background:new    ;}
	.st1{fill:#FFFFFF;}
	.st2{fill:#7A421C;}
	.st3{fill:#F6862A;}
	.st4{fill:#F9C620;}
</style>
<g class="st0">
	<path class="st1" d="M55.3,63.6c-2.4-2.6-5.1-4.6-8.3-6c-3.1-1.4-6.5-2.1-10.2-2.1c-6.3,0-11.3,2-15.1,6.1
		c-3.8,4.1-5.7,9.5-5.7,16.2c0,7,1.9,12.5,5.7,16.5c3.8,4,9.1,6,15.8,6c3.7,0,7.1-0.7,10-2.1c2.9-1.4,5.5-3.5,7.7-6.3v17.7
		c-2.8,1.6-5.9,2.8-9.1,3.6s-6.7,1.2-10.3,1.2c-10.5,0-19.1-3.4-25.8-10.1C3.4,97.6,0,88.9,0,78.2C0,67.4,3.4,58.6,10.3,52
		c6.9-6.6,15.9-10,27-10c3.5,0,6.7,0.3,9.6,1s5.7,1.7,8.2,3.2v17.4H55.3z"/>
	<path class="st1" d="M66.1,111.7V1.8h14.5v53.7c3.1-4.6,6.7-8,10.8-10.1c4.2-2.1,9.2-3.2,15.2-3.2c5,0,9.3,0.8,12.8,2.4
		c3.5,1.6,6.3,3.9,8.3,7.1c1.2,1.8,2,4,2.6,6.5c0.5,2.5,0.8,6.8,0.8,12.9v40.8h-15.5V77.4c0-8.8-1.1-14.7-3.2-17.6
		c-2.2-2.9-6-4.4-11.4-4.4c-3.6,0-6.8,0.7-9.6,2c-2.8,1.3-5,3.2-6.6,5.6c-1.1,1.6-1.9,3.7-2.4,6.2c-0.4,2.5-0.7,6.6-0.7,12.1v30.6
		H66.1V111.7z"/>
	<path class="st1" d="M211.2,80.3h-53.7c0.4,6.3,2.2,11.2,5.6,14.7c3.4,3.5,7.8,5.3,13.4,5.3c5,0,9.1-1,12.4-3.1
		c3.3-2.1,6.2-5.4,8.6-10.1l13,7.2c-3.8,6.8-8.5,11.8-14,15.1c-5.6,3.3-12.1,5-19.6,5c-10.8,0-19.4-3.3-25.7-9.9
		c-6.4-6.6-9.6-15.3-9.6-26.3c0-10.5,3.3-19.2,9.9-26c6.6-6.8,15.1-10.2,25.4-10.2c10.8,0,19.3,3.1,25.3,9.3s9.1,14.9,9.1,26v3
		H211.2z M195.3,70c-0.6-4.8-2.5-8.5-5.5-11c-3.1-2.5-7.3-3.8-12.6-3.8c-5.1,0-9.1,1.2-12.2,3.7c-3.1,2.5-5.2,6.2-6.5,11.1H195.3z"
		/>
</g>
<g class="st0">
	<path class="st1" d="M415,113h-15.4v-8.7c-2.7,3.9-5.9,6.8-9.6,8.6c-3.7,1.9-7.9,2.8-12.6,2.8c-9.5,0-17-3.2-22.4-9.7
		c-5.5-6.5-8.2-15.4-8.2-26.7c0-10.7,2.8-19.4,8.4-26c5.6-6.6,12.9-9.9,21.8-9.9c5.5,0,10.2,1.1,14.1,3.4c3.9,2.3,6.7,5.6,8.5,9.9
		v-11H415V113z M400,79.2c0-6.9-1.6-12.4-4.9-16.2c-3.2-3.9-7.8-5.8-13.6-5.8s-10.4,2-13.7,6s-5,9.5-5,16.6s1.6,12.6,4.8,16.5
		s7.7,5.8,13.6,5.8c5.5,0,10-2.1,13.5-6.3S400,86,400,79.2z"/>
</g>
<g class="st0">
	<path class="st1" d="M445.8,56.5c1.7-4.4,3.8-7.7,6.6-9.9c2.7-2.1,6.1-3.2,10.1-3.2c2.2,0,4.3,0.3,6.4,0.8c2.1,0.5,4.2,1.3,6.2,2.3
		l-5.5,13c-1.3-0.9-2.8-1.6-4.3-2.1c-1.5-0.4-3.3-0.7-5.1-0.7c-5.1,0-8.8,2-11,6.1s-3.3,11-3.3,20.6v29.5h-15.5V45.6h15.4V56.5z"/>
	<path class="st1" d="M499.3,56.5c1.7-4.4,3.8-7.7,6.6-9.9c2.7-2.1,6.1-3.2,10.1-3.2c2.2,0,4.3,0.3,6.4,0.8c2.1,0.5,4.2,1.3,6.2,2.3
		l-5.5,13c-1.3-0.9-2.8-1.6-4.3-2.1c-1.5-0.4-3.3-0.7-5.1-0.7c-5.1,0-8.8,2-11,6.1s-3.3,11-3.3,20.6v29.5H484V45.6h15.4v10.9H499.3z
		"/>
</g>
<g>
	<polygon class="st2" points="257.3,85.6 257.3,105.8 251.2,110.5 251.2,90.3 	"/>
</g>
<g>
	<path class="st3" d="M304,61.8l-30.7-23.6l-16-12.3v20.2l16,12.3l9.8,7.5l-9.8,7.5l-16,12.3v20.2l16-12.3L304,70
		C306.4,68.1,306.4,63.6,304,61.8z M222.4,0c-2,0-3.8,2-3.8,4.8V127c0,2.8,1.8,4.8,3.8,4.8c0.7,0,1.3-0.2,2-0.7l26.8-20.5V90.4
		L234.7,103V28.7l16.5,12.6V21.2L224.4,0.7C223.8,0.2,223.1,0,222.4,0z"/>
</g>
<g>
	<polygon class="st2" points="257.3,25.9 257.3,46.1 251.2,41.4 251.2,21.2 	"/>
</g>
<g>
	<path class="st4" d="M342.7,61.8L263.1,0.7c-0.6-0.5-1.3-0.7-1.9-0.7c-2,0-3.8,2-3.8,4.8v41.3v39.5V127c0,2.8,1.8,4.8,3.8,4.8
		c0.7,0,1.3-0.2,2-0.7L342.8,70C345.1,68.1,345.1,63.6,342.7,61.8z M273.3,103V73.4v-15V28.8l48.4,37.1L273.3,103z"/>
</g>
</svg>
